<?xml version="1.0" standalone="no"?>
<!DOCTYPE svg PUBLIC "-//W3C//DTD SVG 20010904//EN"
 "http://www.w3.org/TR/2001/REC-SVG-20010904/DTD/svg10.dtd">
<svg version="1.0" xmlns="http://www.w3.org/2000/svg"
 width="3000.000000pt" height="3000.000000pt" viewBox="0 0 3000.000000 3000.000000"
 preserveAspectRatio="xMidYMid meet">
<metadata>
Created by potrace 1.11, written by Peter Selinger 2001-2013
</metadata>
<g transform="translate(0.000000,3000.000000) scale(0.100000,-0.100000)"
fill="#000000" stroke="none">
<path d="M10540 15000 l0 -3860 40 0 40 0 0 3860 0 3860 -40 0 -40 0 0 -3860z"/>
<path d="M12347 17474 c-1 -1 -36 -5 -76 -8 -41 -4 -78 -9 -81 -11 -4 -2 -17
-6 -31 -9 -13 -2 -46 -12 -74 -21 -328 -112 -514 -435 -473 -822 36 -347 278
-599 630 -657 242 -40 483 4 660 122 l38 25 0 306 0 306 -250 0 c-217 0 -250
-2 -251 -15 0 -8 -1 -42 -1 -75 0 -125 0 -125 138 -125 92 0 104 -2 105 -17 1
-30 1 -227 0 -240 -2 -31 -158 -74 -266 -74 -158 0 -279 44 -371 136 -105 104
-149 234 -147 425 4 310 196 510 488 510 117 0 186 -17 292 -72 97 -49 121
-55 153 -38 14 8 57 68 103 147 11 18 -120 110 -206 143 -97 38 -198 59 -300
63 -43 1 -79 2 -80 1z"/>
<path d="M14970 17469 c-187 -13 -335 -77 -459 -197 -77 -75 -101 -109 -141
-191 -54 -112 -79 -218 -84 -362 -11 -337 156 -622 432 -734 212 -86 515 -65
696 48 37 23 110 88 135 119 11 15 11 20 -1 31 -7 8 -35 38 -62 67 -53 57 -79
65 -118 36 -110 -80 -166 -103 -285 -113 -340 -29 -562 267 -496 662 41 247
216 399 453 394 107 -2 165 -19 262 -75 99 -58 111 -55 183 44 l55 75 -22 24
c-67 72 -250 155 -373 168 -33 4 -62 8 -65 9 -3 1 -52 -1 -110 -5z"/>
<path d="M13209 17391 c-3 -314 0 -1433 4 -1438 5 -4 713 -7 910 -4 l38 1 -3
113 -3 112 -330 0 -330 0 -3 211 -2 211 237 0 c131 1 250 2 264 2 l25 1 0 108
-1 107 -260 0 -260 0 -3 208 -2 207 335 0 335 0 0 114 0 113 -475 0 -475 0 -1
-66z"/>
<path d="M15752 16703 l3 -756 103 1 c56 0 119 1 140 1 l37 1 0 325 c0 211 3
326 10 328 5 2 163 3 350 3 l340 -1 5 -329 5 -329 133 0 c73 0 136 3 139 7 5
4 8 1354 4 1482 -1 20 -6 21 -141 21 l-140 1 0 -324 0 -324 -37 -1 c-40 0
-614 0 -648 1 -20 0 -20 6 -20 308 1 169 -1 314 -3 323 -3 14 -23 16 -143 17
l-139 0 2 -755z"/>
<path d="M17701 17281 c-38 -97 -146 -372 -240 -611 -95 -239 -176 -444 -180
-455 -31 -67 -100 -259 -96 -263 4 -5 63 -5 215 -3 60 1 75 23 141 202 l61
166 310 0 c305 0 310 0 319 -21 5 -12 33 -86 62 -165 68 -186 64 -183 229
-184 101 0 123 2 121 14 -2 8 -68 181 -148 384 -80 204 -212 537 -292 741
l-145 371 -144 1 -143 0 -70 -177z m336 -451 c52 -146 99 -273 104 -282 5 -10
9 -20 9 -23 0 -3 -106 -5 -235 -5 -129 0 -235 1 -235 3 0 3 57 160 112 312 22
61 59 163 81 229 l41 118 14 -43 c7 -24 56 -163 109 -309z"/>
<path d="M18806 17452 c-2 -4 -3 -343 -3 -754 l0 -748 33 -1 c19 0 82 -1 142
-2 l107 -1 0 292 c0 190 3 292 10 293 65 8 152 2 174 -12 14 -9 103 -134 199
-282 137 -209 180 -268 204 -278 27 -11 294 -17 304 -6 2 2 -38 64 -89 138
-51 74 -137 201 -192 283 -55 82 -117 165 -137 184 l-37 35 54 22 c161 66 265
218 270 395 4 173 -79 311 -228 381 -114 53 -182 61 -510 64 -163 2 -299 0
-301 -3z m637 -251 c94 -46 130 -111 123 -222 -4 -59 -32 -125 -69 -160 -12
-12 -47 -33 -77 -47 -49 -24 -70 -27 -195 -30 l-140 -4 0 243 c0 153 3 247 10
251 5 4 72 6 148 4 131 -4 141 -5 200 -35z"/>
<path d="M20146 17452 c-2 -4 -4 -343 -4 -754 l0 -748 24 -1 c13 0 200 0 414
0 215 0 404 0 420 0 l30 1 0 115 0 115 -27 1 c-16 0 -151 1 -300 1 -150 0
-274 3 -274 7 -1 3 -2 290 -3 636 l-1 630 -137 2 c-76 1 -139 -1 -142 -5z"/>
<path d="M5459 17116 c-2 -2 -40 -7 -84 -10 -95 -8 -139 -13 -180 -20 -16 -4
-43 -9 -60 -12 -235 -42 -529 -162 -744 -304 -203 -133 -422 -340 -546 -515
-11 -16 -26 -34 -32 -41 -7 -7 -13 -15 -13 -18 0 -3 -20 -36 -44 -74 -44 -68
-156 -282 -156 -298 0 -5 -7 -22 -15 -38 -12 -22 -73 -204 -80 -236 -2 -6 -28
-123 -30 -130 -2 -7 -15 -87 -21 -122 -17 -111 -23 -381 -11 -508 8 -78 36
-250 42 -260 2 -4 6 -20 9 -36 9 -48 80 -269 88 -272 5 -2 8 -11 8 -20 0 -20
119 -266 131 -270 5 -2 9 -8 9 -14 0 -11 126 -198 162 -240 13 -15 39 -46 58
-69 55 -66 184 -190 275 -265 79 -65 297 -209 307 -203 2 1 26 -12 55 -29 95
-56 418 -173 518 -187 26 -4 91 -15 119 -21 38 -8 100 -14 163 -17 35 -1 63
-5 63 -8 0 -3 45 -5 100 -5 55 0 100 3 100 6 0 3 24 5 53 5 28 0 70 4 92 8 22
4 61 10 88 12 27 3 51 7 55 9 4 2 27 7 52 11 24 4 52 11 62 16 10 5 18 8 18 5
0 -3 15 0 33 5 17 6 39 12 47 14 18 5 136 46 208 72 29 11 58 25 65 32 6 6 17
11 24 11 7 0 34 12 60 26 104 57 228 129 233 134 3 4 39 31 81 62 189 139 363
325 502 536 57 86 196 352 201 385 1 6 4 17 7 22 4 6 18 48 33 95 15 47 31 99
36 115 5 17 12 48 16 70 3 22 8 43 10 46 2 4 6 24 9 45 3 22 7 50 10 64 26
131 27 474 2 625 -2 10 -14 22 -28 25 -32 7 -2002 5 -2014 -2 -12 -7 -13 -637
-2 -655 6 -9 168 -12 675 -12 367 0 679 0 695 -1 22 0 27 -5 27 -24 0 -31 -45
-176 -70 -225 -10 -20 -30 -61 -45 -91 -58 -120 -156 -257 -264 -367 -39 -40
-75 -73 -81 -73 -5 0 -10 -5 -10 -10 0 -25 -319 -233 -357 -233 -7 0 -13 -4
-13 -9 0 -4 -9 -8 -20 -8 -11 0 -20 -4 -20 -10 0 -5 -3 -9 -7 -8 -5 2 -35 -7
-68 -19 -88 -32 -189 -57 -290 -71 -67 -9 -346 -9 -415 1 -327 46 -640 209
-869 452 -31 32 -66 70 -78 83 -13 12 -23 27 -23 32 0 6 -4 10 -10 10 -5 0
-10 6 -10 14 0 8 -4 16 -8 18 -17 7 -91 127 -140 228 -71 146 -120 309 -138
456 -15 119 -10 339 11 459 10 55 48 200 55 210 4 6 10 24 14 40 10 38 106
233 138 279 143 203 260 325 408 426 36 25 67 47 70 51 16 17 284 143 329 155
142 35 190 46 211 50 115 18 308 23 410 11 30 -4 77 -10 103 -13 l48 -5 143
143 c144 145 187 184 286 256 30 22 64 48 74 57 18 18 18 18 -5 30 -37 19
-255 91 -304 101 -11 2 -54 11 -95 19 -73 14 -110 20 -208 30 -64 7 -289 15
-293 11z"/>
<path d="M7498 17105 c-2 -1 -34 -6 -71 -10 -37 -3 -78 -8 -90 -11 -12 -2 -35
-6 -52 -9 -101 -17 -302 -75 -400 -116 -16 -7 -32 -13 -35 -14 -9 -2 -85 -36
-100 -45 -8 -5 -37 -20 -65 -34 -96 -48 -246 -142 -253 -158 -2 -5 -10 -8 -17
-8 -7 0 -15 -4 -17 -8 -1 -4 -32 -32 -68 -61 -92 -75 -320 -309 -320 -328 0
-4 -7 -13 -15 -22 -20 -22 -105 -140 -105 -147 0 -3 -13 -24 -29 -47 -76 -111
-232 -485 -217 -523 4 -12 58 -14 314 -14 332 0 324 -1 337 53 4 15 11 27 16
27 5 0 9 6 9 13 0 15 96 184 116 204 8 8 14 18 14 22 0 4 9 19 20 32 12 13 37
44 58 68 37 44 132 138 187 186 53 46 207 146 289 187 86 43 237 100 301 113
22 5 45 10 50 11 6 2 51 10 100 18 87 14 359 16 430 3 157 -29 244 -54 355
-100 201 -83 348 -183 511 -347 l76 -77 352 0 c193 0 354 4 357 9 6 10 -39
103 -64 131 -8 9 -12 17 -8 17 4 0 -2 10 -14 22 -11 12 -20 25 -20 30 0 4 -7
16 -14 25 -8 10 -32 41 -53 69 -99 133 -191 229 -362 378 -45 38 -266 186
-279 186 -6 0 -12 4 -14 8 -4 10 -268 138 -293 142 -3 0 -10 2 -17 5 -77 25
-153 48 -198 60 -3 1 -32 7 -65 13 -33 7 -78 17 -100 23 -22 5 -65 12 -95 14
-30 2 -55 5 -55 6 0 3 -383 7 -387 4z"/>
<path d="M12460 15399 c-86 -11 -117 -18 -193 -44 -279 -98 -471 -325 -536
-636 -15 -74 -19 -123 -16 -234 2 -77 6 -151 9 -165 27 -121 44 -177 78 -249
97 -213 268 -361 488 -424 110 -32 163 -39 287 -38 231 1 420 72 563 211 l62
60 -67 72 c-37 40 -77 78 -89 85 -26 14 -39 8 -146 -65 -83 -56 -143 -73 -270
-79 -170 -8 -283 27 -389 123 -188 169 -248 504 -142 786 95 249 354 372 641
303 41 -10 98 -36 156 -71 49 -31 82 -44 107 -44 34 0 40 5 101 88 36 48 65
92 66 99 0 19 -119 103 -205 144 -44 21 -116 48 -160 59 -86 22 -249 31 -345
19z"/>
<path d="M14004 15393 c-280 -44 -513 -215 -633 -465 -189 -394 -85 -895 238
-1140 114 -86 280 -154 421 -173 58 -7 222 -7 280 0 72 10 186 43 255 74 231
105 394 303 462 560 21 79 26 121 27 236 2 212 -16 296 -95 460 -135 277 -423
452 -759 459 -63 1 -152 -4 -196 -11z m297 -281 c148 -28 283 -133 351 -272
51 -107 71 -204 69 -350 -2 -360 -221 -600 -546 -600 -354 0 -573 255 -559
650 3 82 19 190 33 219 5 9 22 45 38 81 69 148 220 258 382 277 26 3 47 6 48
7 7 6 134 -3 184 -12z"/>
<path d="M21137 15404 c-2 -2 -19 -4 -38 -5 -99 -6 -245 -54 -353 -118 -69
-40 -198 -163 -243 -231 -66 -98 -123 -238 -138 -337 -3 -21 -8 -50 -10 -63
-7 -32 -7 -219 0 -288 5 -62 28 -155 56 -230 101 -276 333 -465 629 -513 66
-11 245 -14 290 -4 13 2 42 7 65 11 67 9 186 53 249 91 61 37 186 148 186 165
0 5 -12 22 -27 37 -16 16 -47 49 -71 75 -59 63 -81 64 -155 5 -58 -46 -141
-87 -193 -95 -20 -3 -46 -8 -58 -10 -11 -2 -57 -4 -101 -5 -238 -1 -415 127
-499 359 -32 91 -41 149 -39 277 4 409 260 647 636 591 67 -9 141 -39 217 -86
62 -38 110 -50 136 -32 13 8 134 173 134 181 -1 13 -132 104 -196 136 -74 38
-171 70 -244 80 -49 8 -228 14 -233 9z"/>
<path d="M15349 15389 c-1 -2 -2 -399 -3 -881 -1 -872 -1 -878 19 -879 27 -1
225 -1 250 0 20 1 20 5 20 606 -1 458 2 602 11 592 10 -11 392 -498 711 -907
62 -80 119 -152 126 -160 7 -8 28 -34 46 -58 47 -61 77 -73 179 -73 48 -1 95
0 105 0 16 1 17 50 17 880 l0 880 -145 0 -145 1 -1 -27 c-2 -62 -1 -1072 1
-1123 3 -76 2 -78 -17 -50 -15 22 -441 568 -476 610 -7 8 -53 67 -102 130 -49
63 -95 122 -102 130 -6 8 -61 78 -121 156 -61 77 -118 147 -128 154 -12 11
-51 16 -131 19 -62 2 -114 2 -114 0z"/>
<path d="M17219 15378 c-3 -65 0 -1740 3 -1744 4 -4 202 -7 271 -5 17 1 17 32
15 606 -2 333 -2 605 -1 605 1 0 82 -102 180 -227 98 -126 196 -251 218 -279
22 -27 76 -97 120 -153 44 -57 95 -122 113 -145 44 -55 40 -50 176 -224 66
-84 132 -160 147 -168 25 -13 106 -19 207 -15 l32 1 0 880 0 879 -145 0 -146
-1 3 -608 c2 -335 0 -606 -4 -602 -6 7 -74 91 -129 163 -27 35 -251 320 -504
643 -77 98 -170 217 -206 265 -108 140 -101 136 -235 139 -86 1 -114 -1 -115
-10z"/>
<path d="M19090 14510 l0 -880 33 -1 c34 -1 895 0 1010 1 l67 0 0 130 0 130
-390 0 -390 0 0 248 0 247 293 0 c160 -1 299 1 307 3 13 3 16 23 15 125 l0
122 -308 3 -307 2 0 243 0 242 388 0 387 0 3 132 3 132 -556 1 -555 0 0 -880z"/>
<path d="M21899 15359 c0 -16 -1 -72 -1 -124 0 -52 1 -101 1 -108 1 -9 59 -12
264 -12 l264 0 -1 -742 c-1 -736 -1 -743 19 -744 11 0 84 -1 163 -2 120 -2
142 0 143 13 1 8 3 339 4 735 1 396 3 725 4 730 1 6 94 10 257 10 140 0 258 2
262 5 4 3 8 65 8 137 l-1 133 -692 -1 -693 0 -1 -30z"/>
<path d="M8889 14032 l-65 -3 -71 -72 c-75 -77 -144 -137 -202 -176 -20 -14
-38 -28 -41 -32 -23 -32 -336 -179 -412 -193 -15 -2 -32 -7 -38 -11 -11 -7
-131 -30 -210 -41 -75 -10 -240 -11 -314 -3 -34 4 -86 10 -118 14 -53 6 -58 5
-85 -23 -15 -16 -67 -70 -115 -119 -71 -74 -161 -156 -213 -196 -5 -4 -23 -18
-38 -32 -15 -14 -31 -25 -35 -25 -4 0 -22 -14 -40 -31 -43 -40 -37 -46 88 -88
168 -57 283 -84 400 -96 14 -2 48 -5 75 -9 28 -3 74 -6 103 -7 29 -2 52 -7 52
-13 0 -7 3 -8 8 -1 4 6 41 10 82 11 149 1 269 14 407 45 48 10 95 20 103 22
24 5 104 27 120 34 8 4 17 7 20 8 10 3 45 17 123 47 84 33 230 105 287 142 19
13 61 41 94 62 32 21 66 44 75 49 9 6 18 12 21 15 3 3 30 25 60 50 89 72 275
263 336 345 16 22 37 49 47 59 9 11 17 23 17 27 0 4 6 14 13 21 7 7 28 40 47
73 18 33 36 62 40 65 11 9 33 70 27 76 -6 6 -537 11 -648 6z"/>
<path d="M11734 12862 c8 -16 38 -67 66 -113 47 -79 50 -88 50 -152 l0 -68 32
3 32 3 1 71 c0 47 6 78 15 89 14 17 33 48 47 75 4 8 19 35 35 59 15 25 28 49
28 53 0 4 -15 8 -34 8 -35 0 -35 0 -111 -147 l-13 -25 -29 53 c-15 30 -35 68
-43 84 -12 24 -22 31 -53 33 l-38 3 15 -29z"/>
<path d="M12152 12877 c-76 -28 -118 -100 -110 -188 9 -95 79 -156 179 -157
133 0 215 116 172 243 -17 50 -38 73 -88 96 -45 21 -104 23 -153 6z m116 -48
c39 -13 61 -46 66 -101 9 -92 -47 -156 -128 -145 -60 8 -92 47 -94 118 -4 106
62 161 156 128z"/>
<path d="M12458 12878 c-5 -15 -1 -225 4 -248 7 -27 37 -65 65 -81 36 -21 120
-21 156 0 61 34 70 60 71 205 l1 131 -32 3 -33 3 0 -116 c0 -116 -7 -148 -39
-172 -25 -19 -75 -15 -99 7 -25 23 -31 56 -30 165 0 120 1 115 -31 115 -16 0
-31 -6 -33 -12z"/>
<path d="M12830 12711 l0 -181 35 0 35 0 -1 48 c-2 88 -1 94 23 90 14 -2 38
-27 68 -70 42 -63 47 -68 83 -68 28 0 36 3 31 13 -5 6 -27 40 -50 74 l-43 62
35 35 c38 38 43 69 19 120 -20 41 -52 52 -153 55 l-82 2 0 -180z m164 114 c23
-17 24 -59 2 -83 -9 -11 -32 -19 -56 -20 -43 -3 -42 -6 -42 68 0 22 1 42 1 45
2 11 77 3 95 -10z"/>
<path d="M13365 12879 c-33 -9 -96 -68 -104 -96 -2 -10 -5 -45 -5 -79 -2 -105
61 -166 174 -170 108 -4 182 64 182 168 -1 27 -4 59 -8 71 -28 90 -134 137
-239 106z m135 -61 c48 -45 59 -122 26 -185 -30 -59 -129 -68 -177 -17 -21 22
-24 35 -24 96 0 68 1 71 35 99 28 24 43 29 78 27 25 -1 50 -9 62 -20z"/>
<path d="M13680 12711 l0 -181 30 0 29 0 3 122 3 121 45 -59 c25 -32 50 -64
55 -70 6 -7 28 -35 50 -63 32 -41 45 -51 65 -49 l25 3 0 168 c0 93 -2 173 -6
178 -3 6 -17 9 -30 7 -23 -3 -23 -4 -23 -126 l0 -123 -26 33 c-14 18 -57 73
-95 123 -54 68 -77 91 -98 93 l-27 3 0 -180z"/>
<path d="M14060 12710 l0 -180 115 0 115 0 0 25 c0 25 -1 25 -79 25 -45 0 -81
4 -83 10 -2 6 -2 30 0 55 l4 44 61 3 c54 3 62 5 62 23 0 17 -8 20 -60 23 -33
2 -62 7 -65 12 -3 5 -4 27 -2 50 l4 40 79 0 c78 0 79 0 79 25 l0 25 -115 0
-115 0 0 -180z"/>
<path d="M14515 12876 c-55 -24 -76 -106 -37 -149 14 -16 47 -35 72 -42 56
-14 70 -27 70 -62 0 -40 -67 -58 -106 -28 -26 20 -47 19 -62 -5 -10 -17 -9
-22 11 -34 34 -21 100 -29 147 -16 35 9 45 18 60 53 19 43 20 54 7 94 -7 20
-81 63 -109 63 -7 0 -22 7 -32 15 -16 12 -18 20 -10 43 11 33 46 40 97 19 33
-14 35 -14 46 9 9 21 7 25 -17 37 -37 18 -100 20 -137 3z"/>
<path d="M14708 12884 c-3 -3 -4 -14 -1 -24 4 -15 16 -20 57 -22 l51 -3 0
-150 1 -150 34 0 35 0 0 153 -1 152 52 0 c47 0 52 2 56 25 l5 25 -142 0 c-78
0 -144 -3 -147 -6z"/>
<path d="M15122 12878 c-38 -13 -97 -68 -101 -95 -2 -10 -4 -45 -5 -79 -1 -75
28 -124 92 -155 36 -18 55 -21 103 -15 103 10 163 78 162 183 -1 123 -123 202
-251 161z m122 -49 c57 -26 80 -148 39 -204 -39 -53 -125 -58 -172 -10 -23 22
-26 34 -26 96 0 69 1 72 35 100 37 31 81 37 124 18z"/>
<path d="M15430 12711 l0 -181 35 0 35 0 -1 48 c-2 82 -4 79 60 85 32 2 70 12
84 22 28 18 50 70 45 107 -11 70 -54 95 -170 97 l-88 2 0 -180z m168 113 c15
-10 22 -25 22 -49 0 -42 -29 -65 -82 -65 -41 0 -46 10 -39 88 3 41 4 42 40 42
20 0 47 -7 59 -16z"/>
<path d="M15895 12877 c-36 -17 -58 -55 -57 -98 1 -47 42 -83 106 -96 30 -5
56 -33 56 -59 0 -41 -66 -59 -106 -29 -26 20 -51 19 -63 -4 -8 -13 -7 -21 2
-28 29 -22 68 -31 118 -28 47 2 57 7 85 39 31 36 38 74 20 117 -7 17 -57 49
-76 49 -7 0 -27 7 -46 16 -43 21 -47 58 -8 76 20 9 34 9 68 -4 43 -16 44 -16
55 8 10 22 8 26 -17 35 -44 18 -105 20 -137 6z"/>
<path d="M16120 12710 l0 -180 35 0 35 0 0 80 0 80 84 0 84 0 -2 -71 c-1 -39
2 -75 5 -81 3 -5 19 -8 35 -6 l29 3 0 178 0 177 -32 0 c-19 0 -33 -5 -34 -12
-1 -7 -1 -41 -1 -75 l0 -63 -84 0 c-60 0 -84 4 -85 13 0 6 0 40 1 75 l1 62
-35 0 -36 0 0 -180z"/>
<path d="M16604 12877 c-93 -36 -133 -123 -104 -228 27 -99 152 -147 255 -100
86 39 120 131 85 235 -27 83 -143 129 -236 93z m121 -53 c50 -23 72 -92 53
-162 -15 -55 -52 -82 -112 -82 -56 0 -97 43 -104 108 -11 118 66 182 163 136z"/>
<path d="M16910 12711 l0 -181 34 0 34 0 0 53 c0 28 0 57 1 63 1 6 27 14 59
17 67 6 93 19 116 58 20 34 20 71 1 109 -23 44 -59 57 -157 59 l-88 2 0 -180z
m168 113 c15 -10 22 -25 22 -49 0 -24 -7 -39 -22 -49 -25 -18 -98 -22 -99 -6
0 6 -1 26 -1 45 0 77 -1 75 40 75 21 0 48 -7 60 -16z"/>
<path d="M17424 12879 c-90 -27 -140 -148 -100 -244 53 -125 240 -142 319 -28
60 87 29 217 -63 262 -39 20 -110 24 -156 10z m126 -56 c73 -43 73 -183 -1
-227 -42 -25 -103 -17 -138 18 -23 24 -26 34 -26 97 0 66 2 72 30 98 37 33 93
39 135 14z"/>
<path d="M17730 12710 l0 -180 30 0 29 0 3 121 3 121 90 -116 c86 -111 127
-145 144 -118 3 6 6 86 6 179 l0 168 -30 0 -30 0 0 -117 c1 -65 -2 -118 -5
-118 -3 0 -21 22 -40 47 -107 144 -152 193 -176 193 l-24 0 0 -180z"/>
<path d="M18230 12710 l0 -180 30 0 29 0 3 127 3 126 23 -44 c60 -117 83 -154
100 -160 20 -7 36 -1 43 16 13 33 92 175 98 175 3 0 5 -54 5 -120 l-1 -120 27
0 c15 0 30 6 32 13 3 9 2 233 -1 330 -1 13 -9 17 -34 17 -36 0 -33 4 -119
-164 l-40 -78 -65 121 c-63 119 -65 121 -99 121 l-34 0 0 -180z"/>
<path d="M18815 12881 c-77 -27 -114 -73 -121 -153 -12 -120 72 -205 195 -197
42 3 99 29 122 55 73 86 47 235 -49 282 -38 19 -112 26 -147 13z m110 -56 c41
-20 59 -54 58 -113 0 -86 -43 -132 -124 -132 -64 0 -118 90 -98 164 24 85 88
116 164 81z"/>
<path d="M19110 12709 l0 -180 93 2 c126 2 161 23 174 100 4 31 -22 78 -44 79
-20 0 -15 16 9 32 26 17 32 73 11 105 -21 31 -64 43 -159 43 l-84 0 0 -181z
m171 121 c24 -13 25 -58 2 -76 -21 -16 -103 -19 -104 -4 0 6 -1 26 -1 45 0 19
1 37 1 40 2 9 82 5 102 -5z m13 -156 c9 -8 16 -26 16 -39 0 -38 -26 -55 -81
-55 -51 0 -51 0 -51 55 0 55 0 55 51 55 32 0 55 -6 65 -16z"/>
<path d="M19440 12710 l0 -180 35 0 34 0 0 180 0 180 -35 0 -34 0 0 -180z"/>
<path d="M19580 12710 l0 -180 105 0 105 0 0 25 c0 24 -2 25 -70 25 -49 0 -70
4 -71 13 0 6 -1 76 -1 155 l0 142 -34 0 -34 0 0 -180z"/>
<path d="M19840 12710 l0 -180 115 0 115 0 0 25 c0 25 -1 25 -80 25 l-80 0 0
55 0 55 60 0 c33 0 60 3 61 8 0 4 2 15 4 25 3 15 -5 17 -61 17 l-64 0 0 50 0
50 80 0 c79 0 80 0 80 25 l0 25 -115 0 -115 0 0 -180z"/>
<path d="M20250 12709 l0 -181 104 4 c90 3 108 7 140 28 88 60 102 194 28 277
-33 38 -84 53 -182 53 l-90 0 0 -181z m212 102 c31 -28 33 -33 33 -101 0 -67
-2 -73 -31 -99 -24 -22 -41 -28 -87 -30 -49 -2 -57 1 -58 16 -1 22 -1 237 0
241 1 1 26 2 56 2 46 0 60 -4 87 -29z"/>
<path d="M20711 12868 c-30 -78 -73 -186 -80 -203 -23 -51 -51 -124 -51 -130
0 -3 14 -5 31 -3 33 3 42 12 59 61 9 26 12 27 84 27 l75 0 12 -40 c9 -28 19
-42 35 -46 56 -14 55 -7 -18 179 l-70 177 -34 0 c-27 0 -37 -5 -43 -22z m99
-195 c0 -2 -25 -3 -56 -3 -41 0 -55 3 -51 13 2 6 15 41 27 76 l24 63 28 -73
c15 -41 28 -75 28 -76z"/>
<path d="M20898 12865 c-5 -24 -4 -25 51 -25 l57 0 -1 -142 c0 -79 1 -149 3
-155 2 -7 18 -13 36 -13 l31 0 0 155 -1 155 51 0 c59 0 65 3 58 31 -5 18 -15
19 -143 19 l-138 0 -4 -25z"/>
<path d="M21291 12868 c-5 -13 -36 -92 -70 -177 -34 -85 -61 -156 -61 -158 0
-2 14 -3 31 -1 33 3 42 12 59 61 9 26 12 27 83 27 l74 0 17 -45 c16 -41 21
-45 52 -45 32 0 33 1 24 28 -6 15 -14 36 -19 47 -5 11 -33 80 -61 153 l-52
132 -34 0 c-26 0 -37 -5 -43 -22z m99 -195 c0 -2 -25 -3 -55 -3 -30 0 -55 2
-55 4 0 3 12 37 26 76 l27 71 28 -73 c16 -40 29 -74 29 -75z"/>
<path d="M21718 12863 c-6 -16 -12 -30 -13 -33 -5 -22 -100 -257 -107 -264
-19 -22 -8 -37 23 -34 33 3 42 12 59 61 9 26 12 27 83 27 l74 0 17 -45 c16
-41 21 -45 52 -45 l34 0 -19 48 c-54 134 -110 279 -115 295 -4 12 -16 17 -41
17 -29 0 -37 -5 -47 -27z m102 -190 c0 -2 -25 -3 -55 -3 -30 0 -55 2 -55 4 0
3 12 37 26 76 l27 71 28 -73 c16 -40 29 -74 29 -75z"/>
<path d="M21980 12710 l0 -180 30 0 29 0 3 120 3 120 80 -101 c112 -142 111
-141 137 -137 l23 3 0 178 0 178 -29 -3 -30 -3 0 -122 c-1 -67 -4 -119 -7
-115 -3 4 -39 50 -80 102 -105 135 -110 140 -136 140 l-23 0 0 -180z"/>
<path d="M22360 12711 l0 -181 92 0 c113 0 160 19 201 82 25 38 28 51 25 104
-4 72 -33 122 -88 152 -27 15 -57 20 -132 21 l-98 2 0 -180z m218 96 c24 -25
27 -35 27 -98 0 -67 -2 -72 -33 -100 -27 -25 -41 -29 -87 -29 -50 0 -55 2 -56
23 -1 25 -1 155 0 206 l1 33 60 -4 c49 -4 66 -9 88 -31z"/>
<path d="M22860 12710 l0 -180 83 1 c107 0 147 14 171 60 26 49 10 103 -36
122 -9 4 -5 12 11 25 16 13 25 31 26 53 4 73 -43 99 -177 99 l-78 0 0 -180z
m171 120 c12 -7 19 -21 19 -41 0 -23 -6 -32 -27 -40 -29 -11 -94 -9 -93 4 0 4
0 25 0 47 l0 40 41 0 c22 0 49 -5 60 -10z m10 -150 c23 -13 26 -62 3 -84 -17
-18 -110 -22 -116 -6 -2 6 -2 31 0 55 l4 45 45 0 c24 0 53 -5 64 -10z"/>
<path d="M23190 12710 l0 -180 33 0 33 0 1 180 0 180 -33 0 -34 0 0 -180z"/>
<path d="M23340 12710 l0 -180 104 0 c74 0 105 4 108 13 11 29 -4 37 -73 37
-48 0 -69 4 -70 13 0 6 0 76 0 155 l0 142 -35 0 -34 0 0 -180z"/>
<path d="M23600 12710 l0 -180 105 0 105 0 0 25 c0 24 -2 25 -70 25 -70 0 -70
0 -71 28 0 15 0 84 1 155 l1 127 -36 0 -35 0 0 -180z"/>
<path d="M23902 12877 c-31 -18 -51 -49 -54 -85 -3 -47 19 -78 71 -97 81 -29
91 -36 91 -66 0 -49 -60 -64 -117 -30 l-31 20 -16 -24 c-14 -22 -14 -24 12
-41 36 -24 128 -27 164 -6 46 27 66 90 45 139 -9 21 -82 63 -110 63 -8 0 -21
8 -30 18 -46 51 17 93 85 58 27 -15 33 -12 52 22 18 31 -115 55 -162 29z"/>
<path d="M24250 12711 l0 -181 34 0 c33 0 34 0 34 48 0 84 -1 82 36 82 88 0
140 33 152 97 8 45 -15 97 -53 116 -17 9 -63 15 -115 16 l-88 2 0 -180z m168
113 c32 -22 30 -76 -3 -98 -29 -19 -95 -22 -96 -3 -1 14 -1 111 0 115 3 9 81
-1 99 -14z"/>
<path d="M24618 12863 c-6 -16 -12 -30 -12 -33 -2 -7 -46 -118 -62 -155 -13
-31 -54 -138 -54 -142 0 -2 14 -3 31 -3 26 0 33 6 50 45 l20 45 74 0 73 0 18
-45 c15 -41 20 -45 50 -45 l34 0 -21 53 c-11 28 -32 81 -45 117 -28 73 -34 87
-59 148 -16 38 -22 42 -52 42 -27 0 -36 -5 -45 -27z m102 -190 c0 -2 -25 -3
-55 -3 -30 0 -55 2 -55 4 0 3 12 37 27 77 l26 72 29 -74 c15 -40 28 -75 28
-76z"/>
<path d="M24814 12862 c8 -16 38 -67 66 -113 47 -79 50 -88 50 -152 l0 -68 32
3 33 3 0 66 c0 62 3 70 63 171 34 59 62 109 62 112 0 3 -15 6 -34 6 -35 0 -35
0 -111 -147 l-13 -25 -26 48 c-61 119 -61 119 -100 122 l-37 3 15 -29z"/>
<path d="M25170 12710 l0 -180 30 0 29 0 3 128 3 127 44 -85 c87 -168 87 -168
185 13 20 37 38 67 39 67 1 0 1 -56 0 -125 l-2 -125 32 0 32 0 -2 172 c-1 95
-2 176 -2 181 -1 4 -16 7 -35 7 -31 0 -37 -5 -58 -48 -13 -26 -41 -80 -62
-119 l-40 -72 -64 119 c-62 118 -64 120 -98 120 l-34 0 0 -180z"/>
<path d="M25640 12710 l0 -180 115 0 115 0 0 25 c0 25 -1 25 -79 25 -88 0 -91
2 -82 77 3 32 4 32 64 35 55 3 61 5 62 26 2 21 -2 22 -61 22 l-62 0 -4 46 c-2
25 -1 47 1 50 2 2 40 4 83 4 77 0 78 0 78 25 l0 25 -115 0 -115 0 0 -180z"/>
<path d="M25920 12710 l0 -180 30 0 29 0 3 121 3 121 52 -69 c29 -37 64 -81
79 -98 14 -16 33 -40 42 -53 10 -16 23 -22 41 -20 l26 3 0 175 0 175 -26 3
c-33 4 -35 -5 -34 -135 1 -57 -1 -103 -4 -103 -3 1 -28 30 -56 67 -115 151
-135 173 -161 173 l-24 0 0 -180z"/>
<path d="M26278 12878 c-11 -28 4 -38 56 -38 l53 0 -2 -142 c-1 -79 1 -149 3
-155 2 -7 17 -13 33 -13 16 0 30 6 30 13 1 6 2 75 3 152 l1 140 55 5 c30 3 54
8 53 13 -2 4 -3 14 -3 22 0 13 -22 15 -139 15 -102 0 -140 -3 -143 -12z"/>
</g>
</svg>
